<?xml version="1.0" encoding="UTF-8" standalone="no"?>
<!DOCTYPE svg PUBLIC "-//W3C//DTD SVG 1.1//EN" "http://www.w3.org/Graphics/SVG/1.1/DTD/svg11.dtd">
<svg width="100%" height="100%" viewBox="0 0 312 312" version="1.1" xmlns="http://www.w3.org/2000/svg" xmlns:xlink="http://www.w3.org/1999/xlink" xml:space="preserve" xmlns:serif="http://www.serif.com/" style="fill-rule:evenodd;clip-rule:evenodd;stroke-linecap:round;stroke-linejoin:round;stroke-miterlimit:10;">
    <g id="Artboard1" transform="matrix(1,0,0,0.987187,0,0)">
        <rect x="0" y="0" width="311.43" height="315.644" style="fill:none;"/>
        <clipPath id="_clip1">
            <rect x="0" y="0" width="311.43" height="315.644"/>
        </clipPath>
        <g clip-path="url(#_clip1)">
            <g transform="matrix(1.06258,0,0,1.0417,-335.088,-4.78786)">
                <rect x="309.213" y="-4.845" width="310.98" height="214.292" style="fill:rgb(252,252,252);"/>
            </g>
            <g transform="matrix(0.844419,0,0,0.977833,-45.6755,-39.8724)">
                <path d="M427.063,258.905L428.124,367.3L54.091,367.094L54.091,258.684L55.58,258.266L57.068,257.274L58.557,255.728L60.045,254.351L61.534,251.488L63.022,248.949L64.511,246.126L65.999,243.958L67.488,239.98L68.976,237.682L70.465,235.998L71.953,229.342L73.442,224.987L74.93,223.107L76.418,221.608L77.907,209.702L79.395,212.156L80.884,204.528L82.372,195.485L83.861,196.929L85.349,192.851L86.838,189.476L88.326,181.568L89.815,171.642L91.303,184.431L92.792,161.949L94.28,157.072L95.769,166.59L97.257,159.161L98.746,156.172L100.234,138.302L101.723,139.777L103.211,134.688L104.7,142.207L106.188,138.857L107.677,116.805L109.165,122.822L110.654,114.63L112.142,100.003L113.631,110.92L115.119,88.473L116.608,115.842L118.096,129.144L119.585,100.3L121.073,80.224L122.562,87.467L124.05,91.384L125.539,104.927L127.027,75.353L128.516,80.991L130.004,71.488L131.493,69.556L132.981,54.867L134.47,109.209L135.958,59.636L137.447,50.334L138.935,71.663L140.424,119.023L143.401,76.837L144.889,179.789L146.378,124.469L147.866,181.574L150.843,199.132L152.332,186.785L153.82,196.61L155.309,192.26L156.797,198.6L158.286,202.789L159.774,120.923L161.263,189.601L162.751,119.226L164.24,139.935L165.728,70.877L167.217,53.386L168.705,71.398L170.193,54.361L171.682,56.849L173.17,58.177L174.659,61.068L176.147,59.872L177.636,62.031L179.124,65.953L180.613,68.681L182.101,69.042L183.59,80.111L185.078,81.1L186.567,76.835L188.055,78.599L191.032,84.405L192.521,97.086L194.009,101.496L195.498,92.333L196.986,94.178L198.475,98.296L199.963,101.676L201.452,104.587L202.94,108.479L204.429,117.059L205.917,127.642L207.406,219.988L208.894,218.007L210.383,164.914L211.871,224.695L213.36,124.472L214.848,132.186L216.337,144.539L217.825,137.87L219.314,141.746L220.802,161.546L222.291,140.412L223.779,142.593L225.268,151.245L226.756,147.676L228.245,152.561L229.733,161.808L231.222,164.078L232.71,159.357L234.199,186.393L235.687,192.218L237.176,165.873L238.664,245.753L240.153,178.069L241.641,220.461L243.13,226.184L244.618,203.664L246.107,200.417L247.595,220.746L249.084,207.873L250.572,223.049L252.061,205.153L253.549,232.78L255.038,241.522L256.526,245.964L259.503,223.413L260.992,242.256L262.48,236.083L263.968,232.919L265.457,242.048L266.945,241.577L268.434,238.088L269.922,241.636L272.899,248.133L274.388,248.634L275.876,253.08L277.365,247.975L278.853,249.933L280.342,254.471L281.83,249.137L283.319,253.408L284.807,250.391L286.296,253.581L287.784,251.744L289.273,249.087L290.761,248.313L292.25,251.83L293.738,250.091L295.227,252.053L296.715,251.206L298.204,251.838L299.692,254.452L301.181,253.028L302.669,254.796L304.158,254.023L305.646,253.447L307.135,256.876L308.623,253.321L310.112,253.347L313.089,254.919L314.577,257.71L316.066,255.526L317.554,256.728L319.043,255.921L320.531,257.596L322.02,254.432L323.508,256.014L324.997,251.764L326.485,255.645L327.974,253.333L329.462,251.672L330.951,253.125L332.439,255.43L333.928,250.79L335.416,254.179L336.905,250.487L338.393,255.619L339.882,253.956L341.37,250.415L342.859,254.178L344.347,252.182L345.836,255.646L347.324,250.854L348.813,250.714L350.301,254.807L351.79,251.928L353.278,251.491L354.767,251.762L356.255,250.425L357.744,255.859L359.232,251.381L360.72,254.155L362.209,252.019L363.697,252.49L365.186,253.624L366.674,253.438L368.163,252.004L369.651,253.04L371.14,252.96L372.628,252.574L374.117,253.866L375.605,253.324L377.094,253.929L380.071,254.246L381.559,255.946L384.536,256.085L386.025,258.603L387.513,258.362L389.002,258.576L391.979,258.582L393.467,258.466L394.956,258.596L405.375,258.589L408.352,258.662L409.841,258.007L411.329,256.927L414.306,256.767L417.283,256.827L418.772,256.976L420.26,256.803L423.237,256.864L427.063,258.905Z" style="fill:rgb(2,113,187);fill-rule:nonzero;stroke:rgb(2,113,187);stroke-width:0.99px;"/>
            </g>
            <g transform="matrix(0.438946,0,0,0.444643,2.60893,272.786)">
                <path d="M142.59,56.056L74.949,56.056L63.137,94.306L10.402,94.306L85.496,-110.444L131.902,-110.444L207.558,94.306L154.543,94.306L142.59,56.056ZM86.762,17.947L130.777,17.947L108.699,-53.069L86.762,17.947Z" style="fill:rgb(252,252,252);fill-rule:nonzero;"/>
                <path d="M284.143,22.025L257.424,22.025L257.424,94.306L208.065,94.306L208.065,-110.444L288.643,-110.444C312.924,-110.444 331.908,-105.053 345.596,-94.272C359.283,-83.491 366.127,-68.256 366.127,-48.569C366.127,-34.319 363.244,-22.506 357.479,-13.131C351.713,-3.756 342.69,3.837 330.408,9.65L373.158,92.197L373.158,94.306L320.283,94.306L284.143,22.025ZM257.424,-16.084L288.643,-16.084C298.018,-16.084 305.072,-18.545 309.807,-23.467C314.541,-28.389 316.908,-35.256 316.908,-44.069C316.908,-52.881 314.518,-59.795 309.737,-64.811C304.955,-69.827 297.924,-72.334 288.643,-72.334L257.424,-72.334L257.424,-16.084Z" style="fill:rgb(252,252,252);fill-rule:nonzero;"/>
                <path d="M541.003,-72.334L479.55,-72.334L479.55,94.306L430.19,94.306L430.19,-72.334L369.862,-72.334L369.862,-110.444L541.003,-110.444L541.003,-72.334Z" style="fill:rgb(252,252,252);fill-rule:nonzero;"/>
                <g transform="matrix(1,0,0,0.973262,-2.84217e-14,-0.215744)">
                    <path d="M647.895,39.884C647.895,32.666 645.34,27.041 640.231,23.009C635.121,18.978 626.145,14.806 613.301,10.494C600.457,6.181 589.957,2.009 581.801,-2.022C555.27,-15.053 542.004,-32.959 542.004,-55.741C542.004,-67.084 545.309,-77.092 551.918,-85.764C558.527,-94.436 567.879,-101.186 579.973,-106.014C592.067,-110.842 605.66,-113.256 620.754,-113.256C635.473,-113.256 648.668,-110.631 660.34,-105.381C672.012,-100.131 681.082,-92.655 687.551,-82.952C694.02,-73.249 697.254,-62.163 697.254,-49.694L648.035,-49.694C648.035,-58.038 645.481,-64.506 640.371,-69.1C635.262,-73.694 628.348,-75.991 619.629,-75.991C610.817,-75.991 603.856,-74.045 598.746,-70.155C593.637,-66.264 591.082,-61.319 591.082,-55.319C591.082,-50.069 593.895,-45.311 599.52,-41.045C605.145,-36.78 615.035,-32.374 629.192,-27.827C643.348,-23.28 654.973,-18.381 664.067,-13.131C686.192,-0.381 697.254,17.197 697.254,39.603C697.254,57.509 690.504,71.572 677.004,81.791C663.504,92.009 644.988,97.119 621.457,97.119C604.863,97.119 589.84,94.142 576.387,88.189C562.934,82.236 552.809,74.08 546.012,63.72C539.215,53.361 535.817,41.431 535.817,27.931L585.317,27.931C585.317,38.9 588.152,46.986 593.824,52.189C599.496,57.392 608.707,59.994 621.457,59.994C629.613,59.994 636.059,58.236 640.793,54.72C645.527,51.205 647.895,46.259 647.895,39.884Z" style="fill:rgb(252,252,252);fill-rule:nonzero;"/>
                </g>
            </g>
        </g>
    </g>
</svg>
