<?xml version="1.0" encoding="UTF-8" standalone="no"?>
<!DOCTYPE svg PUBLIC "-//W3C//DTD SVG 1.1//EN" "http://www.w3.org/Graphics/SVG/1.1/DTD/svg11.dtd">
<svg width="100%" height="100%" viewBox="0 0 443 274" version="1.1" xmlns="http://www.w3.org/2000/svg" xmlns:xlink="http://www.w3.org/1999/xlink" xml:space="preserve" xmlns:serif="http://www.serif.com/" style="fill-rule:evenodd;clip-rule:evenodd;stroke-miterlimit:10;">
    <g transform="matrix(0,-1,-1,0,273.481,32.6645)">
        <ellipse cx="16.073" cy="257.409" rx="14.172" ry="14.173" style="fill:none;stroke:black;stroke-width:1.89px;"/>
    </g>
    <g transform="matrix(0,-1,-1,0,684.491,443.674)">
        <circle cx="427.083" cy="257.409" r="14.172" style="fill:none;stroke:black;stroke-width:1.89px;"/>
    </g>
    <g transform="matrix(0,-1,-1,0,32.545,273.601)">
        <ellipse cx="16.073" cy="16.472" rx="14.173" ry="14.173" style="fill:none;stroke:black;stroke-width:1.89px;"/>
    </g>
    <g transform="matrix(0,-1,-1,0,443.554,684.611)">
        <ellipse cx="427.083" cy="16.472" rx="14.173" ry="14.173" style="fill:none;stroke:black;stroke-width:1.89px;"/>
    </g>
    <g transform="matrix(0,-1,-1,0,443.554,372.811)">
        <ellipse cx="271.183" cy="172.372" rx="14.173" ry="14.173" style="fill:none;stroke:rgb(255,0,0);stroke-width:1.89px;"/>
    </g>
    <g transform="matrix(1,0,0,1,0,0.119)">
        <rect x="16.073" y="16.472" width="411.01" height="240.937" style="fill:none;stroke:black;stroke-width:0.47px;"/>
    </g>
    <g transform="matrix(0,1,1,0,183.847,-84.5188)">
        <clipPath id="_clip1">
            <path d="M358.519,-183.847L358.519,259.153L84.519,259.153L84.519,-183.847L358.519,-183.847ZM328.819,81.666L328.819,93.005L301.04,93.005L323.717,87.336L301.04,81.666L328.819,81.666ZM213.547,93.005L213.547,81.666L241.326,81.666L218.65,87.336L241.326,93.005L213.547,93.005Z"/>
        </clipPath>
        <g clip-path="url(#_clip1)">
            <path d="M214.492,87.336L327.874,87.336" style="fill:none;fill-rule:nonzero;stroke:rgb(255,0,0);stroke-width:1.89px;"/>
        </g>
    </g>
    <g transform="matrix(1,0,0,1,0,16.938)">
        <path d="M276.852,139.869L271.183,117.193L265.513,139.869" style="fill:none;fill-rule:nonzero;stroke:rgb(255,0,0);stroke-width:1.89px;"/>
    </g>
    <g transform="matrix(1,0,0,1,0,181.719)">
        <path d="M265.513,34.802L271.183,57.479L276.852,34.802" style="fill:none;fill-rule:nonzero;stroke:rgb(255,0,0);stroke-width:1.89px;"/>
    </g>
    <g transform="matrix(1,0,0,1,0,-70.744)">
        <clipPath id="_clip2">
            <path d="M0,344.744L443,344.744L443,70.744L0,70.744L0,344.744ZM243.782,178.041L243.782,166.703L216.003,166.703L238.68,172.372L216.003,178.041L243.782,178.041ZM29.301,166.703L29.301,178.041L57.08,178.041L34.403,172.372L57.08,166.703L29.301,166.703Z"/>
        </clipPath>
        <g clip-path="url(#_clip2)">
            <path d="M30.246,172.372L242.837,172.372" style="fill:none;fill-rule:nonzero;stroke:rgb(255,0,0);stroke-width:1.89px;"/>
        </g>
    </g>
    <g transform="matrix(1,0,0,1,0,-70.744)">
        <path d="M57.08,166.703L34.403,172.372L57.08,178.041" style="fill:none;fill-rule:nonzero;stroke:rgb(255,0,0);stroke-width:1.89px;"/>
    </g>
    <g transform="matrix(1,0,0,1,0,-70.744)">
        <path d="M216.003,178.041L238.68,172.372L216.003,166.703" style="fill:none;fill-rule:nonzero;stroke:rgb(255,0,0);stroke-width:1.89px;"/>
    </g>
    <g transform="matrix(37.794,0,0,37.794,299.528,115.801)">
        <rect x="0.098" y="-0.717" width="0.098" height="0.717" style="fill:rgb(255,0,0);fill-rule:nonzero;"/>
    </g>
    <g transform="matrix(37.794,0,0,37.794,312.113,115.801)">
        <path d="M0.085,-0.717L0.408,-0.717C0.472,-0.717 0.523,-0.699 0.563,-0.663C0.602,-0.627 0.621,-0.577 0.621,-0.512C0.621,-0.456 0.604,-0.407 0.569,-0.365C0.534,-0.324 0.48,-0.303 0.408,-0.303L0.183,-0.303L0.183,-0L0.085,-0L0.085,-0.717ZM0.523,-0.511C0.523,-0.564 0.503,-0.6 0.464,-0.619C0.443,-0.629 0.413,-0.634 0.376,-0.634L0.183,-0.634L0.183,-0.385L0.376,-0.385C0.42,-0.385 0.455,-0.395 0.482,-0.413C0.509,-0.432 0.523,-0.464 0.523,-0.511Z" style="fill:rgb(255,0,0);fill-rule:nonzero;"/>
    </g>
    <g transform="matrix(37.794,0,0,37.794,30.2458,243.355)">
        <path d="M0.096,-0.495L0.096,-0.563C0.159,-0.569 0.203,-0.579 0.229,-0.594C0.254,-0.608 0.272,-0.642 0.285,-0.696L0.354,-0.696L0.354,-0L0.26,-0L0.26,-0.495L0.096,-0.495Z" style="fill-rule:nonzero;"/>
    </g>
    <g transform="matrix(37.794,0,0,37.794,398.738,243.355)">
        <path d="M0.031,-0C0.035,-0.06 0.047,-0.113 0.069,-0.157C0.09,-0.202 0.132,-0.242 0.195,-0.279L0.289,-0.333C0.331,-0.357 0.361,-0.378 0.377,-0.396C0.404,-0.423 0.417,-0.453 0.417,-0.488C0.417,-0.529 0.405,-0.561 0.381,-0.585C0.356,-0.609 0.324,-0.621 0.283,-0.621C0.223,-0.621 0.181,-0.598 0.158,-0.553C0.146,-0.528 0.139,-0.494 0.138,-0.451L0.048,-0.451C0.049,-0.512 0.061,-0.562 0.082,-0.6C0.12,-0.668 0.187,-0.702 0.284,-0.702C0.364,-0.702 0.422,-0.68 0.459,-0.637C0.496,-0.593 0.515,-0.545 0.515,-0.492C0.515,-0.436 0.495,-0.388 0.456,-0.349C0.433,-0.326 0.392,-0.298 0.333,-0.265L0.266,-0.228C0.234,-0.21 0.209,-0.193 0.191,-0.177C0.158,-0.149 0.138,-0.118 0.129,-0.083L0.511,-0.083L0.511,-0L0.031,-0Z" style="fill-rule:nonzero;"/>
    </g>
    <g transform="matrix(37.794,0,0,37.794,398.738,59.109)">
        <path d="M0.331,-0.248L0.331,-0.564L0.106,-0.248L0.331,-0.248ZM0.332,-0L0.332,-0.171L0.025,-0.171L0.025,-0.257L0.346,-0.701L0.42,-0.701L0.42,-0.248L0.523,-0.248L0.523,-0.171L0.42,-0.171L0.42,-0L0.332,-0Z" style="fill-rule:nonzero;"/>
    </g>
    <g transform="matrix(37.794,0,0,37.794,30.2458,59.109)">
        <path d="M0.26,0.019C0.177,0.019 0.117,-0.004 0.08,-0.049C0.043,-0.094 0.024,-0.15 0.024,-0.215L0.116,-0.215C0.12,-0.17 0.128,-0.137 0.141,-0.116C0.164,-0.079 0.205,-0.061 0.265,-0.061C0.311,-0.061 0.348,-0.073 0.376,-0.098C0.404,-0.123 0.418,-0.155 0.418,-0.194C0.418,-0.242 0.403,-0.276 0.374,-0.295C0.344,-0.314 0.303,-0.324 0.251,-0.324C0.245,-0.324 0.239,-0.324 0.233,-0.323C0.227,-0.323 0.221,-0.323 0.215,-0.323L0.215,-0.4C0.224,-0.399 0.232,-0.399 0.238,-0.398C0.244,-0.398 0.251,-0.398 0.258,-0.398C0.291,-0.398 0.318,-0.403 0.339,-0.414C0.376,-0.432 0.395,-0.464 0.395,-0.511C0.395,-0.546 0.382,-0.573 0.357,-0.592C0.333,-0.611 0.304,-0.62 0.271,-0.62C0.212,-0.62 0.172,-0.601 0.149,-0.562C0.137,-0.54 0.13,-0.509 0.128,-0.47L0.042,-0.47C0.042,-0.522 0.052,-0.566 0.073,-0.603C0.109,-0.668 0.172,-0.7 0.262,-0.7C0.333,-0.7 0.388,-0.684 0.427,-0.653C0.466,-0.621 0.486,-0.575 0.486,-0.515C0.486,-0.472 0.474,-0.437 0.451,-0.41C0.437,-0.394 0.418,-0.381 0.396,-0.371C0.432,-0.361 0.461,-0.342 0.482,-0.313C0.502,-0.284 0.513,-0.249 0.513,-0.207C0.513,-0.14 0.491,-0.086 0.447,-0.044C0.403,-0.002 0.34,0.019 0.26,0.019Z" style="fill-rule:nonzero;"/>
    </g>
    <g transform="matrix(37.794,0,0,37.794,106.779,132.808)">
        <path d="M0.082,-0.669L0.171,-0.669L0.171,-0.523L0.254,-0.523L0.254,-0.451L0.171,-0.451L0.171,-0.11C0.171,-0.092 0.177,-0.079 0.189,-0.073C0.196,-0.07 0.208,-0.068 0.224,-0.068C0.228,-0.068 0.232,-0.068 0.237,-0.068C0.242,-0.068 0.248,-0.069 0.254,-0.069L0.254,-0C0.244,0.003 0.234,0.005 0.223,0.006C0.212,0.008 0.2,0.008 0.188,0.008C0.146,0.008 0.119,-0.002 0.104,-0.023C0.089,-0.044 0.082,-0.071 0.082,-0.105L0.082,-0.451L0.011,-0.451L0.011,-0.523L0.082,-0.523L0.082,-0.669Z" style="fill:rgb(255,0,0);fill-rule:nonzero;"/>
    </g>
    <g transform="matrix(37.794,0,0,37.794,237.168,195.168)">
        <path d="M0.152,-0.523L0.152,-0.176C0.152,-0.149 0.157,-0.127 0.165,-0.11C0.181,-0.079 0.21,-0.063 0.252,-0.063C0.314,-0.063 0.355,-0.091 0.377,-0.146C0.389,-0.175 0.396,-0.215 0.396,-0.266L0.396,-0.523L0.483,-0.523L0.483,-0L0.4,-0L0.401,-0.077C0.39,-0.057 0.376,-0.041 0.359,-0.027C0.325,0 0.285,0.014 0.237,0.014C0.162,0.014 0.111,-0.011 0.084,-0.061C0.07,-0.087 0.063,-0.123 0.063,-0.167L0.063,-0.523L0.152,-0.523Z" style="fill:rgb(255,0,0);fill-rule:nonzero;"/>
    </g>
</svg>
