<?xml version="1.0" encoding="UTF-8" standalone="no"?>
<!DOCTYPE svg PUBLIC "-//W3C//DTD SVG 1.1//EN" "http://www.w3.org/Graphics/SVG/1.1/DTD/svg11.dtd">
<svg width="100%" height="100%" viewBox="0 0 895 457" version="1.1" xmlns="http://www.w3.org/2000/svg" xmlns:xlink="http://www.w3.org/1999/xlink" xml:space="preserve" xmlns:serif="http://www.serif.com/" style="fill-rule:evenodd;clip-rule:evenodd;stroke-miterlimit:10;">
    <g transform="matrix(0.1,0,0,0.1,0,-226.854)">
        <path d="M16.91,3419.27L6819.83,3419.27" style="fill:none;fill-rule:nonzero;stroke:black;stroke-width:9.45px;"/>
    </g>
    <g transform="matrix(0.1,0,0,0.1,0,-0.09)">
        <path d="M16.91,2285.45L6819.83,2285.45" style="fill:none;fill-rule:nonzero;stroke:black;stroke-width:9.45px;"/>
    </g>
    <g transform="matrix(0.1,0,0,0.1,0,226.674)">
        <path d="M16.91,1151.63L6819.83,1151.63" style="fill:none;fill-rule:nonzero;stroke:black;stroke-width:9.45px;"/>
    </g>
    <g transform="matrix(0.1,0,0,0.1,0,453.438)">
        <path d="M16.91,17.81L6819.83,17.81" style="fill:none;fill-rule:nonzero;stroke:black;stroke-width:9.45px;"/>
    </g>
    <g transform="matrix(0,0.1,0.1,0,-226.854,226.764)">
        <path d="M-2250.73,2285.45L2284.55,2285.45" style="fill:none;fill-rule:nonzero;stroke:black;stroke-width:9.45px;"/>
    </g>
    <g transform="matrix(0,0.1,0.1,0,-113.472,113.382)">
        <path d="M-1116.91,2285.45L3418.37,2285.45" style="fill:none;fill-rule:nonzero;stroke:black;stroke-width:9.45px;"/>
    </g>
    <g transform="matrix(0,0.1,0.1,0,-0.08999,1e-05)">
        <path d="M16.91,2285.45L4552.19,2285.45" style="fill:none;fill-rule:nonzero;stroke:black;stroke-width:9.45px;"/>
    </g>
    <g transform="matrix(0,0.1,0.1,0,113.292,-113.382)">
        <path d="M1150.73,2285.45L5686.01,2285.45" style="fill:none;fill-rule:nonzero;stroke:black;stroke-width:9.45px;"/>
    </g>
    <g transform="matrix(0,0.1,0.1,0,226.674,-226.764)">
        <path d="M2284.55,2285.45L6819.83,2285.45" style="fill:none;fill-rule:nonzero;stroke:black;stroke-width:9.45px;"/>
    </g>
    <g transform="matrix(0,0.1,0.1,0,340.056,-340.146)">
        <path d="M3418.37,2285.45L7953.65,2285.45" style="fill:none;fill-rule:nonzero;stroke:black;stroke-width:9.45px;"/>
    </g>
    <g transform="matrix(0,0.1,0.1,0,453.438,-453.528)">
        <path d="M4552.19,2285.45L9087.47,2285.45" style="fill:none;fill-rule:nonzero;stroke:black;stroke-width:9.45px;"/>
    </g>
    <g transform="matrix(0.1,0,0,0.1,0,-453.618)">
        <path d="M16.91,4553.09L6819.83,4553.09" style="fill:none;fill-rule:nonzero;stroke:black;stroke-width:9.45px;"/>
    </g>
    <g transform="matrix(0,0.1,0.1,0,-198.509,198.418)">
        <path d="M-1683.82,2285.45L2284.55,2285.45" style="fill:none;fill-rule:nonzero;stroke:rgb(0,255,0);stroke-width:28.35px;stroke-dasharray:9.45,23.31;stroke-dashoffset:23.31;"/>
    </g>
    <g transform="matrix(0,0.1,0.1,0,-141.818,141.727)">
        <path d="M-1116.91,2285.45L2851.46,2285.45" style="fill:none;fill-rule:nonzero;stroke:rgb(0,255,0);stroke-width:28.35px;stroke-dasharray:9.45,23.31;stroke-dashoffset:23.31;"/>
    </g>
    <g transform="matrix(0,0.1,0.1,0,-85.1263,85.0358)">
        <path d="M-549.998,2285.45L3418.38,2285.45" style="fill:none;fill-rule:nonzero;stroke:rgb(0,255,0);stroke-width:28.35px;stroke-dasharray:9.45,23.31;stroke-dashoffset:23.31;"/>
    </g>
    <g transform="matrix(0,0.1,0.1,0,-28.4363,28.3457)">
        <path d="M16.903,2285.45L3985.28,2285.45" style="fill:none;fill-rule:nonzero;stroke:rgb(0,255,0);stroke-width:28.35px;stroke-dasharray:9.45,23.31;stroke-dashoffset:23.31;"/>
    </g>
    <g transform="matrix(0,0.1,0.1,0,28.2557,-28.3463)">
        <path d="M583.823,2285.45L4552.2,2285.45" style="fill:none;fill-rule:nonzero;stroke:rgb(0,255,0);stroke-width:28.35px;stroke-dasharray:9.45,23.31;stroke-dashoffset:23.31;"/>
    </g>
    <g transform="matrix(0,0.1,0.1,0,84.9467,-85.0373)">
        <path d="M1150.73,2285.45L5119.11,2285.45" style="fill:none;fill-rule:nonzero;stroke:rgb(0,255,0);stroke-width:28.35px;stroke-dasharray:9.45,23.31;stroke-dashoffset:23.31;"/>
    </g>
    <g transform="matrix(0,0.1,0.1,0,141.638,-141.728)">
        <path d="M1717.64,2285.45L5686.02,2285.45" style="fill:none;fill-rule:nonzero;stroke:rgb(0,255,0);stroke-width:28.35px;stroke-dasharray:9.45,23.31;stroke-dashoffset:23.31;"/>
    </g>
    <g transform="matrix(0,0.1,0.1,0,198.329,-198.419)">
        <path d="M2284.55,2285.45L6252.93,2285.45" style="fill:none;fill-rule:nonzero;stroke:rgb(0,255,0);stroke-width:28.35px;stroke-dasharray:9.45,23.31;stroke-dashoffset:23.31;"/>
    </g>
    <g transform="matrix(0,0.1,0.1,0,255.02,-255.11)">
        <path d="M2851.46,2285.45L6819.84,2285.45" style="fill:none;fill-rule:nonzero;stroke:rgb(0,255,0);stroke-width:28.35px;stroke-dasharray:9.45,23.31;stroke-dashoffset:23.31;"/>
    </g>
    <g transform="matrix(0,0.1,0.1,0,311.711,-311.801)">
        <path d="M3418.37,2285.45L7386.75,2285.45" style="fill:none;fill-rule:nonzero;stroke:rgb(0,255,0);stroke-width:28.35px;stroke-dasharray:9.45,23.31;stroke-dashoffset:23.31;"/>
    </g>
    <g transform="matrix(0,0.1,0.1,0,368.402,-368.492)">
        <path d="M3985.28,2285.45L7953.66,2285.45" style="fill:none;fill-rule:nonzero;stroke:rgb(0,255,0);stroke-width:28.35px;stroke-dasharray:9.45,23.31;stroke-dashoffset:23.31;"/>
    </g>
    <g transform="matrix(0,0.1,0.1,0,425.093,-425.183)">
        <path d="M4552.19,2285.45L8520.57,2285.45" style="fill:none;fill-rule:nonzero;stroke:rgb(0,255,0);stroke-width:28.35px;stroke-dasharray:9.45,23.31;stroke-dashoffset:23.31;"/>
    </g>
    <g transform="matrix(0.1,0,0,0.1,0,-396.928)">
        <path d="M300.365,4269.64L6536.38,4269.64" style="fill:none;fill-rule:nonzero;stroke:rgb(0,255,0);stroke-width:28.35px;stroke-dasharray:9.45,23.31;stroke-dashoffset:23.31;"/>
    </g>
    <g transform="matrix(0.1,0,0,0.1,0,-283.546)">
        <path d="M300.365,3702.73L6536.38,3702.73" style="fill:none;fill-rule:nonzero;stroke:rgb(0,255,0);stroke-width:28.35px;stroke-dasharray:9.45,23.31;stroke-dashoffset:23.31;"/>
    </g>
    <g transform="matrix(0.1,0,0,0.1,0,-170.162)">
        <path d="M300.365,3135.81L6536.38,3135.81" style="fill:none;fill-rule:nonzero;stroke:rgb(0,255,0);stroke-width:28.35px;stroke-dasharray:9.45,23.31;stroke-dashoffset:23.31;"/>
    </g>
    <g transform="matrix(0.1,0,0,0.1,0,-56.782)">
        <path d="M300.365,2568.91L6536.38,2568.91" style="fill:none;fill-rule:nonzero;stroke:rgb(0,255,0);stroke-width:28.35px;stroke-dasharray:9.45,23.31;stroke-dashoffset:23.31;"/>
    </g>
    <g transform="matrix(0.1,0,0,0.1,0,56.602)">
        <path d="M300.365,2001.99L6536.38,2001.99" style="fill:none;fill-rule:nonzero;stroke:rgb(0,255,0);stroke-width:28.35px;stroke-dasharray:9.45,23.31;stroke-dashoffset:23.31;"/>
    </g>
    <g transform="matrix(0.1,0,0,0.1,0,169.984)">
        <path d="M300.365,1435.08L6536.38,1435.08" style="fill:none;fill-rule:nonzero;stroke:rgb(0,255,0);stroke-width:28.35px;stroke-dasharray:9.45,23.31;stroke-dashoffset:23.31;"/>
    </g>
    <g transform="matrix(0.1,0,0,0.1,0,283.365)">
        <path d="M300.365,868.175L6536.38,868.175" style="fill:none;fill-rule:nonzero;stroke:rgb(0,255,0);stroke-width:28.35px;stroke-dasharray:9.45,23.31;stroke-dashoffset:23.31;"/>
    </g>
    <g transform="matrix(0.1,0,0,0.1,0,-396.928)">
        <path d="M300.365,4269.64L6536.38,4269.64" style="fill:none;fill-rule:nonzero;stroke:rgb(0,255,0);stroke-width:28.35px;stroke-dasharray:9.45,23.31;stroke-dashoffset:23.31;"/>
    </g>
    <g transform="matrix(0.1,0,0,0.1,0,-283.546)">
        <path d="M300.365,3702.73L6536.38,3702.73" style="fill:none;fill-rule:nonzero;stroke:rgb(0,255,0);stroke-width:28.35px;stroke-dasharray:9.45,23.31;stroke-dashoffset:23.31;"/>
    </g>
    <g transform="matrix(0.1,0,0,0.1,0,-170.162)">
        <path d="M300.365,3135.81L6536.38,3135.81" style="fill:none;fill-rule:nonzero;stroke:rgb(0,255,0);stroke-width:28.35px;stroke-dasharray:9.45,23.31;stroke-dashoffset:23.31;"/>
    </g>
    <g transform="matrix(0.1,0,0,0.1,0,-56.782)">
        <path d="M300.365,2568.91L6536.38,2568.91" style="fill:none;fill-rule:nonzero;stroke:rgb(0,255,0);stroke-width:28.35px;stroke-dasharray:9.45,23.31;stroke-dashoffset:23.31;"/>
    </g>
    <g transform="matrix(0.1,0,0,0.1,0,56.602)">
        <path d="M300.365,2001.99L6536.38,2001.99" style="fill:none;fill-rule:nonzero;stroke:rgb(0,255,0);stroke-width:28.35px;stroke-dasharray:9.45,23.31;stroke-dashoffset:23.31;"/>
    </g>
    <g transform="matrix(0.1,0,0,0.1,0,169.984)">
        <path d="M300.365,1435.08L6536.38,1435.08" style="fill:none;fill-rule:nonzero;stroke:rgb(0,255,0);stroke-width:28.35px;stroke-dasharray:9.45,23.31;stroke-dashoffset:23.31;"/>
    </g>
    <g transform="matrix(0.1,0,0,0.1,0,283.365)">
        <path d="M300.365,868.175L6536.38,868.175" style="fill:none;fill-rule:nonzero;stroke:rgb(0,255,0);stroke-width:28.35px;stroke-dasharray:9.45,23.31;stroke-dashoffset:23.31;"/>
    </g>
    <g transform="matrix(0.1,0,0,0.1,0,-396.928)">
        <path d="M300.365,4269.64L6536.38,4269.64" style="fill:none;fill-rule:nonzero;stroke:rgb(0,255,0);stroke-width:28.35px;stroke-dasharray:9.45,23.31;stroke-dashoffset:23.31;"/>
    </g>
    <g transform="matrix(0.1,0,0,0.1,0,-283.546)">
        <path d="M300.365,3702.73L6536.38,3702.73" style="fill:none;fill-rule:nonzero;stroke:rgb(0,255,0);stroke-width:28.35px;stroke-dasharray:9.45,23.31;stroke-dashoffset:23.31;"/>
    </g>
    <g transform="matrix(0.1,0,0,0.1,0,-170.162)">
        <path d="M300.365,3135.81L6536.38,3135.81" style="fill:none;fill-rule:nonzero;stroke:rgb(0,255,0);stroke-width:28.35px;stroke-dasharray:9.45,23.31;stroke-dashoffset:23.31;"/>
    </g>
    <g transform="matrix(0.1,0,0,0.1,0,-56.782)">
        <path d="M300.365,2568.91L6536.38,2568.91" style="fill:none;fill-rule:nonzero;stroke:rgb(0,255,0);stroke-width:28.35px;stroke-dasharray:9.45,23.31;stroke-dashoffset:23.31;"/>
    </g>
    <g transform="matrix(0.1,0,0,0.1,0,56.602)">
        <path d="M300.365,2001.99L6536.38,2001.99" style="fill:none;fill-rule:nonzero;stroke:rgb(0,255,0);stroke-width:28.35px;stroke-dasharray:9.45,23.31;stroke-dashoffset:23.31;"/>
    </g>
    <g transform="matrix(0.1,0,0,0.1,0,169.984)">
        <path d="M300.365,1435.08L6536.38,1435.08" style="fill:none;fill-rule:nonzero;stroke:rgb(0,255,0);stroke-width:28.35px;stroke-dasharray:9.45,23.31;stroke-dashoffset:23.31;"/>
    </g>
    <g transform="matrix(0.1,0,0,0.1,0,283.365)">
        <path d="M300.365,868.175L6536.38,868.175" style="fill:none;fill-rule:nonzero;stroke:rgb(0,255,0);stroke-width:28.35px;stroke-dasharray:9.45,23.31;stroke-dashoffset:23.31;"/>
    </g>
    <g transform="matrix(0.1,0,0,0.1,0,-396.928)">
        <path d="M300.365,4269.64L6536.38,4269.64" style="fill:none;fill-rule:nonzero;stroke:rgb(0,255,0);stroke-width:28.35px;stroke-dasharray:9.45,23.31;stroke-dashoffset:23.31;"/>
    </g>
    <g transform="matrix(0.1,0,0,0.1,0,-283.546)">
        <path d="M300.365,3702.73L6536.38,3702.73" style="fill:none;fill-rule:nonzero;stroke:rgb(0,255,0);stroke-width:28.35px;stroke-dasharray:9.45,23.31;stroke-dashoffset:23.31;"/>
    </g>
    <g transform="matrix(0.1,0,0,0.1,0,-170.162)">
        <path d="M300.365,3135.81L6536.38,3135.81" style="fill:none;fill-rule:nonzero;stroke:rgb(0,255,0);stroke-width:28.35px;stroke-dasharray:9.45,23.31;stroke-dashoffset:23.31;"/>
    </g>
    <g transform="matrix(0.1,0,0,0.1,0,-56.782)">
        <path d="M300.365,2568.91L6536.38,2568.91" style="fill:none;fill-rule:nonzero;stroke:rgb(0,255,0);stroke-width:28.35px;stroke-dasharray:9.45,23.31;stroke-dashoffset:23.31;"/>
    </g>
    <g transform="matrix(0.1,0,0,0.1,0,56.602)">
        <path d="M300.365,2001.99L6536.38,2001.99" style="fill:none;fill-rule:nonzero;stroke:rgb(0,255,0);stroke-width:28.35px;stroke-dasharray:9.45,23.31;stroke-dashoffset:23.31;"/>
    </g>
    <g transform="matrix(0.1,0,0,0.1,0,169.984)">
        <path d="M300.365,1435.08L6536.38,1435.08" style="fill:none;fill-rule:nonzero;stroke:rgb(0,255,0);stroke-width:28.35px;stroke-dasharray:9.45,23.31;stroke-dashoffset:23.31;"/>
    </g>
    <g transform="matrix(0.1,0,0,0.1,0,283.365)">
        <path d="M300.365,868.175L6536.38,868.175" style="fill:none;fill-rule:nonzero;stroke:rgb(0,255,0);stroke-width:28.35px;stroke-dasharray:9.45,23.31;stroke-dashoffset:23.31;"/>
    </g>
    <g transform="matrix(0.1,0,0,0.1,0,-396.928)">
        <path d="M300.365,4269.64L6536.38,4269.64" style="fill:none;fill-rule:nonzero;stroke:rgb(0,255,0);stroke-width:28.35px;stroke-dasharray:9.45,23.31;stroke-dashoffset:23.31;"/>
    </g>
    <g transform="matrix(0.1,0,0,0.1,0,-283.546)">
        <path d="M300.365,3702.73L6536.38,3702.73" style="fill:none;fill-rule:nonzero;stroke:rgb(0,255,0);stroke-width:28.35px;stroke-dasharray:9.45,23.31;stroke-dashoffset:23.31;"/>
    </g>
    <g transform="matrix(0.1,0,0,0.1,0,-170.162)">
        <path d="M300.365,3135.81L6536.38,3135.81" style="fill:none;fill-rule:nonzero;stroke:rgb(0,255,0);stroke-width:28.35px;stroke-dasharray:9.45,23.31;stroke-dashoffset:23.31;"/>
    </g>
    <g transform="matrix(0.1,0,0,0.1,0,-56.782)">
        <path d="M300.365,2568.91L6536.38,2568.91" style="fill:none;fill-rule:nonzero;stroke:rgb(0,255,0);stroke-width:28.35px;stroke-dasharray:9.45,23.31;stroke-dashoffset:23.31;"/>
    </g>
    <g transform="matrix(0.1,0,0,0.1,0,56.602)">
        <path d="M300.365,2001.99L6536.38,2001.99" style="fill:none;fill-rule:nonzero;stroke:rgb(0,255,0);stroke-width:28.35px;stroke-dasharray:9.45,23.31;stroke-dashoffset:23.31;"/>
    </g>
    <g transform="matrix(0.1,0,0,0.1,0,169.984)">
        <path d="M300.365,1435.08L6536.38,1435.08" style="fill:none;fill-rule:nonzero;stroke:rgb(0,255,0);stroke-width:28.35px;stroke-dasharray:9.45,23.31;stroke-dashoffset:23.31;"/>
    </g>
    <g transform="matrix(0.1,0,0,0.1,0,283.365)">
        <path d="M300.365,868.175L6536.38,868.175" style="fill:none;fill-rule:nonzero;stroke:rgb(0,255,0);stroke-width:28.35px;stroke-dasharray:9.45,23.31;stroke-dashoffset:23.31;"/>
    </g>
    <g transform="matrix(0.1,0,0,0.1,0,-396.928)">
        <path d="M300.365,4269.64L6536.38,4269.64" style="fill:none;fill-rule:nonzero;stroke:rgb(0,255,0);stroke-width:28.35px;stroke-dasharray:9.45,23.31;stroke-dashoffset:23.31;"/>
    </g>
    <g transform="matrix(0.1,0,0,0.1,0,-283.546)">
        <path d="M300.365,3702.73L6536.38,3702.73" style="fill:none;fill-rule:nonzero;stroke:rgb(0,255,0);stroke-width:28.35px;stroke-dasharray:9.45,23.31;stroke-dashoffset:23.31;"/>
    </g>
    <g transform="matrix(0.1,0,0,0.1,0,-170.162)">
        <path d="M300.365,3135.81L6536.38,3135.81" style="fill:none;fill-rule:nonzero;stroke:rgb(0,255,0);stroke-width:28.35px;stroke-dasharray:9.45,23.31;stroke-dashoffset:23.31;"/>
    </g>
    <g transform="matrix(0.1,0,0,0.1,0,-56.782)">
        <path d="M300.365,2568.91L6536.38,2568.91" style="fill:none;fill-rule:nonzero;stroke:rgb(0,255,0);stroke-width:28.35px;stroke-dasharray:9.45,23.31;stroke-dashoffset:23.31;"/>
    </g>
    <g transform="matrix(0.1,0,0,0.1,0,56.602)">
        <path d="M300.365,2001.99L6536.38,2001.99" style="fill:none;fill-rule:nonzero;stroke:rgb(0,255,0);stroke-width:28.35px;stroke-dasharray:9.45,23.31;stroke-dashoffset:23.31;"/>
    </g>
    <g transform="matrix(0.1,0,0,0.1,0,169.984)">
        <path d="M300.365,1435.08L6536.38,1435.08" style="fill:none;fill-rule:nonzero;stroke:rgb(0,255,0);stroke-width:28.35px;stroke-dasharray:9.45,23.31;stroke-dashoffset:23.31;"/>
    </g>
    <g transform="matrix(0.1,0,0,0.1,0,283.365)">
        <path d="M300.365,868.175L6536.38,868.175" style="fill:none;fill-rule:nonzero;stroke:rgb(0,255,0);stroke-width:28.35px;stroke-dasharray:9.45,23.31;stroke-dashoffset:23.31;"/>
    </g>
    <g transform="matrix(0.1,0,0,0.1,0,-396.928)">
        <path d="M300.365,4269.64L6536.38,4269.64" style="fill:none;fill-rule:nonzero;stroke:rgb(0,255,0);stroke-width:28.35px;stroke-dasharray:9.45,23.31;stroke-dashoffset:23.31;"/>
    </g>
    <g transform="matrix(0.1,0,0,0.1,0,-283.546)">
        <path d="M300.365,3702.73L6536.38,3702.73" style="fill:none;fill-rule:nonzero;stroke:rgb(0,255,0);stroke-width:28.35px;stroke-dasharray:9.45,23.31;stroke-dashoffset:23.31;"/>
    </g>
    <g transform="matrix(0.1,0,0,0.1,0,-170.162)">
        <path d="M300.365,3135.81L6536.38,3135.81" style="fill:none;fill-rule:nonzero;stroke:rgb(0,255,0);stroke-width:28.35px;stroke-dasharray:9.45,23.31;stroke-dashoffset:23.31;"/>
    </g>
    <g transform="matrix(0.1,0,0,0.1,0,-56.782)">
        <path d="M300.365,2568.91L6536.38,2568.91" style="fill:none;fill-rule:nonzero;stroke:rgb(0,255,0);stroke-width:28.35px;stroke-dasharray:9.45,23.31;stroke-dashoffset:23.31;"/>
    </g>
    <g transform="matrix(0.1,0,0,0.1,0,56.602)">
        <path d="M300.365,2001.99L6536.38,2001.99" style="fill:none;fill-rule:nonzero;stroke:rgb(0,255,0);stroke-width:28.35px;stroke-dasharray:9.45,23.31;stroke-dashoffset:23.31;"/>
    </g>
    <g transform="matrix(0.1,0,0,0.1,0,169.984)">
        <path d="M300.365,1435.08L6536.38,1435.08" style="fill:none;fill-rule:nonzero;stroke:rgb(0,255,0);stroke-width:28.35px;stroke-dasharray:9.45,23.31;stroke-dashoffset:23.31;"/>
    </g>
    <g transform="matrix(0.1,0,0,0.1,0,283.365)">
        <path d="M300.365,868.175L6536.38,868.175" style="fill:none;fill-rule:nonzero;stroke:rgb(0,255,0);stroke-width:28.35px;stroke-dasharray:9.45,23.31;stroke-dashoffset:23.31;"/>
    </g>
    <g transform="matrix(0.1,0,0,0.1,0,-396.928)">
        <path d="M300.365,4269.64L6536.38,4269.64" style="fill:none;fill-rule:nonzero;stroke:rgb(0,255,0);stroke-width:28.35px;stroke-dasharray:9.45,23.31;stroke-dashoffset:23.31;"/>
    </g>
    <g transform="matrix(0.1,0,0,0.1,0,-283.546)">
        <path d="M300.365,3702.73L6536.38,3702.73" style="fill:none;fill-rule:nonzero;stroke:rgb(0,255,0);stroke-width:28.35px;stroke-dasharray:9.45,23.31;stroke-dashoffset:23.31;"/>
    </g>
    <g transform="matrix(0.1,0,0,0.1,0,-170.162)">
        <path d="M300.365,3135.81L6536.38,3135.81" style="fill:none;fill-rule:nonzero;stroke:rgb(0,255,0);stroke-width:28.35px;stroke-dasharray:9.45,23.31;stroke-dashoffset:23.31;"/>
    </g>
    <g transform="matrix(0.1,0,0,0.1,0,-56.782)">
        <path d="M300.365,2568.91L6536.38,2568.91" style="fill:none;fill-rule:nonzero;stroke:rgb(0,255,0);stroke-width:28.35px;stroke-dasharray:9.45,23.31;stroke-dashoffset:23.31;"/>
    </g>
    <g transform="matrix(0.1,0,0,0.1,0,56.602)">
        <path d="M300.365,2001.99L6536.38,2001.99" style="fill:none;fill-rule:nonzero;stroke:rgb(0,255,0);stroke-width:28.35px;stroke-dasharray:9.45,23.31;stroke-dashoffset:23.31;"/>
    </g>
    <g transform="matrix(0.1,0,0,0.1,0,169.984)">
        <path d="M300.365,1435.08L6536.38,1435.08" style="fill:none;fill-rule:nonzero;stroke:rgb(0,255,0);stroke-width:28.35px;stroke-dasharray:9.45,23.31;stroke-dashoffset:23.31;"/>
    </g>
    <g transform="matrix(0.1,0,0,0.1,0,283.365)">
        <path d="M300.365,868.175L6536.38,868.175" style="fill:none;fill-rule:nonzero;stroke:rgb(0,255,0);stroke-width:28.35px;stroke-dasharray:9.45,23.31;stroke-dashoffset:23.31;"/>
    </g>
    <g transform="matrix(0.1,0,0,0.1,0,-396.928)">
        <path d="M300.365,4269.64L6536.38,4269.64" style="fill:none;fill-rule:nonzero;stroke:rgb(0,255,0);stroke-width:28.35px;stroke-dasharray:9.45,23.31;stroke-dashoffset:23.31;"/>
    </g>
    <g transform="matrix(0.1,0,0,0.1,0,-283.546)">
        <path d="M300.365,3702.73L6536.38,3702.73" style="fill:none;fill-rule:nonzero;stroke:rgb(0,255,0);stroke-width:28.35px;stroke-dasharray:9.45,23.31;stroke-dashoffset:23.31;"/>
    </g>
    <g transform="matrix(0.1,0,0,0.1,0,-170.162)">
        <path d="M300.365,3135.81L6536.38,3135.81" style="fill:none;fill-rule:nonzero;stroke:rgb(0,255,0);stroke-width:28.35px;stroke-dasharray:9.45,23.31;stroke-dashoffset:23.31;"/>
    </g>
    <g transform="matrix(0.1,0,0,0.1,0,-56.782)">
        <path d="M300.365,2568.91L6536.38,2568.91" style="fill:none;fill-rule:nonzero;stroke:rgb(0,255,0);stroke-width:28.35px;stroke-dasharray:9.45,23.31;stroke-dashoffset:23.31;"/>
    </g>
    <g transform="matrix(0.1,0,0,0.1,0,56.602)">
        <path d="M300.365,2001.99L6536.38,2001.99" style="fill:none;fill-rule:nonzero;stroke:rgb(0,255,0);stroke-width:28.35px;stroke-dasharray:9.45,23.31;stroke-dashoffset:23.31;"/>
    </g>
    <g transform="matrix(0.1,0,0,0.1,0,169.984)">
        <path d="M300.365,1435.08L6536.38,1435.08" style="fill:none;fill-rule:nonzero;stroke:rgb(0,255,0);stroke-width:28.35px;stroke-dasharray:9.45,23.31;stroke-dashoffset:23.31;"/>
    </g>
    <g transform="matrix(0.1,0,0,0.1,0,283.365)">
        <path d="M300.365,868.175L6536.38,868.175" style="fill:none;fill-rule:nonzero;stroke:rgb(0,255,0);stroke-width:28.35px;stroke-dasharray:9.45,23.31;stroke-dashoffset:23.31;"/>
    </g>
    <g transform="matrix(0.1,0,0,0.1,0,-396.928)">
        <path d="M300.365,4269.64L6536.38,4269.64" style="fill:none;fill-rule:nonzero;stroke:rgb(0,255,0);stroke-width:28.35px;stroke-dasharray:9.45,23.31;stroke-dashoffset:23.31;"/>
    </g>
    <g transform="matrix(0.1,0,0,0.1,0,-283.546)">
        <path d="M300.365,3702.73L6536.38,3702.73" style="fill:none;fill-rule:nonzero;stroke:rgb(0,255,0);stroke-width:28.35px;stroke-dasharray:9.45,23.31;stroke-dashoffset:23.31;"/>
    </g>
    <g transform="matrix(0.1,0,0,0.1,0,-170.162)">
        <path d="M300.365,3135.81L6536.38,3135.81" style="fill:none;fill-rule:nonzero;stroke:rgb(0,255,0);stroke-width:28.35px;stroke-dasharray:9.45,23.31;stroke-dashoffset:23.31;"/>
    </g>
    <g transform="matrix(0.1,0,0,0.1,0,-56.782)">
        <path d="M300.365,2568.91L6536.38,2568.91" style="fill:none;fill-rule:nonzero;stroke:rgb(0,255,0);stroke-width:28.35px;stroke-dasharray:9.45,23.31;stroke-dashoffset:23.31;"/>
    </g>
    <g transform="matrix(0.1,0,0,0.1,0,56.602)">
        <path d="M300.365,2001.99L6536.38,2001.99" style="fill:none;fill-rule:nonzero;stroke:rgb(0,255,0);stroke-width:28.35px;stroke-dasharray:9.45,23.31;stroke-dashoffset:23.31;"/>
    </g>
    <g transform="matrix(0.1,0,0,0.1,0,169.984)">
        <path d="M300.365,1435.08L6536.38,1435.08" style="fill:none;fill-rule:nonzero;stroke:rgb(0,255,0);stroke-width:28.35px;stroke-dasharray:9.45,23.31;stroke-dashoffset:23.31;"/>
    </g>
    <g transform="matrix(0.1,0,0,0.1,0,283.365)">
        <path d="M300.365,868.175L6536.38,868.175" style="fill:none;fill-rule:nonzero;stroke:rgb(0,255,0);stroke-width:28.35px;stroke-dasharray:9.45,23.31;stroke-dashoffset:23.31;"/>
    </g>
    <g transform="matrix(0.1,0,0,0.1,0,-396.928)">
        <path d="M300.365,4269.64L6536.38,4269.64" style="fill:none;fill-rule:nonzero;stroke:rgb(0,255,0);stroke-width:28.35px;stroke-dasharray:9.45,23.31;stroke-dashoffset:23.31;"/>
    </g>
    <g transform="matrix(0.1,0,0,0.1,0,-283.546)">
        <path d="M300.365,3702.73L6536.38,3702.73" style="fill:none;fill-rule:nonzero;stroke:rgb(0,255,0);stroke-width:28.35px;stroke-dasharray:9.45,23.31;stroke-dashoffset:23.31;"/>
    </g>
    <g transform="matrix(0.1,0,0,0.1,0,-170.162)">
        <path d="M300.365,3135.81L6536.38,3135.81" style="fill:none;fill-rule:nonzero;stroke:rgb(0,255,0);stroke-width:28.35px;stroke-dasharray:9.45,23.31;stroke-dashoffset:23.31;"/>
    </g>
    <g transform="matrix(0.1,0,0,0.1,0,-56.782)">
        <path d="M300.365,2568.91L6536.38,2568.91" style="fill:none;fill-rule:nonzero;stroke:rgb(0,255,0);stroke-width:28.35px;stroke-dasharray:9.45,23.31;stroke-dashoffset:23.31;"/>
    </g>
    <g transform="matrix(0.1,0,0,0.1,0,56.602)">
        <path d="M300.365,2001.99L6536.38,2001.99" style="fill:none;fill-rule:nonzero;stroke:rgb(0,255,0);stroke-width:28.35px;stroke-dasharray:9.45,23.31;stroke-dashoffset:23.31;"/>
    </g>
    <g transform="matrix(0.1,0,0,0.1,0,169.984)">
        <path d="M300.365,1435.08L6536.38,1435.08" style="fill:none;fill-rule:nonzero;stroke:rgb(0,255,0);stroke-width:28.35px;stroke-dasharray:9.45,23.31;stroke-dashoffset:23.31;"/>
    </g>
    <g transform="matrix(0.1,0,0,0.1,0,283.365)">
        <path d="M300.365,868.175L6536.38,868.175" style="fill:none;fill-rule:nonzero;stroke:rgb(0,255,0);stroke-width:28.35px;stroke-dasharray:9.45,23.31;stroke-dashoffset:23.31;"/>
    </g>
    <g transform="matrix(0.1,0,0,0.1,0,396.747)">
        <path d="M300.365,301.265L6536.38,301.265" style="fill:none;fill-rule:nonzero;stroke:rgb(0,255,0);stroke-width:28.35px;stroke-dasharray:9.45,23.31;stroke-dashoffset:23.31;"/>
    </g>
    <g transform="matrix(0,-0.1,-0.1,0,1002.75,685.438)">
        <circle cx="6155.91" cy="3871.53" r="88.185" style="fill:none;stroke:rgb(0,0,255);stroke-width:28.35px;"/>
    </g>
    <g transform="matrix(0,-0.1,-0.1,0,876.072,757.813)">
        <circle cx="5884.43" cy="2876.3" r="88.185" style="fill:none;stroke:rgb(0,0,255);stroke-width:28.35px;"/>
    </g>
    <g transform="matrix(0,-0.1,-0.1,0,657.435,772.868)">
        <ellipse cx="4866.51" cy="1707.84" rx="88.185" ry="88.19" style="fill:none;stroke:rgb(0,0,255);stroke-width:28.35px;"/>
    </g>
    <g transform="matrix(0,-0.1,-0.1,0,535.612,714.539)">
        <circle cx="3965.76" cy="1390.37" r="88.185" style="fill:none;stroke:rgb(0,0,255);stroke-width:28.35px;"/>
    </g>
    <g transform="matrix(0,-0.1,-0.1,0,417.317,594.481)">
        <ellipse cx="2773.99" cy="1399.18" rx="88.19" ry="88.185" style="fill:none;stroke:rgb(0,0,255);stroke-width:28.35px;"/>
    </g>
    <g transform="matrix(0,-0.1,-0.1,0,350.106,456.721)">
        <circle cx="1749.13" cy="1751.92" r="88.185" style="fill:none;stroke:rgb(0,0,255);stroke-width:28.35px;"/>
    </g>
    <g transform="matrix(0,-0.1,-0.1,0,341.287,250.114)">
        <ellipse cx="672.006" cy="2740.87" rx="88.185" ry="88.186" style="fill:none;stroke:rgb(0,0,255);stroke-width:28.35px;"/>
    </g>
    <g transform="matrix(0.1,0,0,0.1,0,-64.403)">
        <path d="M6147.1,1333.67L6147.1,1337.45L6147.73,1340.6L6147.73,1345.01L6148.36,1350.68L6148.36,1358.87L6148.99,1368.32L6149.62,1379.03L6149.62,1392.25L6150.25,1407.37L6150.25,1462.17L6149.62,1483.59L6148.99,1506.27L6147.73,1530.2L6146.47,1554.77L6143.95,1581.22L6141.43,1608.31L6138.28,1636.03L6134.5,1665L6130.09,1695.24L6124.42,1726.1L6118.12,1758.23L6110.56,1790.98L6101.74,1825.62L6092.3,1860.9L6080.96,1898.06L6067.73,1936.49L6053.24,1976.8L6037.49,2019L6019.23,2063.1L5999.07,2109.08L5976.39,2156.95L5951.83,2207.34L5924.74,2259L5895.77,2312.54L5864.27,2366.71L5837.19,2412.06L5808.84,2457.41L5780.5,2501.51L5752.15,2544.34L5724.43,2585.28L5697.35,2624.34L5671.52,2661.5L5646.96,2696.15L5623.65,2728.9L5601.6,2759.14L5580.82,2786.85L5561.92,2812.68L5543.65,2835.98L5527.28,2858.03L5512.16,2877.56L5497.67,2895.83L5484.44,2912.2L5472.47,2927.32L5461.14,2941.81L5450.43,2954.41L5440.35,2967L5430.27,2978.34L5420.82,2989.68L5410.74,3000.39L5401.3,3011.1L5391.22,3022.44L5381.14,3033.14L5370.43,3044.48L5359.09,3057.08L5346.49,3069.68L5333.27,3083.54L5318.78,3098.65L5266.5,3150.93L5245.71,3171.09L5223.03,3192.51L5199.1,3216.44L5172.64,3241.01L5144.3,3268.1L5114.06,3295.81L5081.31,3325.42L5047.29,3356.28L5011.39,3387.78L4974.22,3419.9L4936.43,3452.03L4897.38,3484.15L4857.69,3515.02L4808.56,3552.18L4760.69,3586.83L4714.7,3618.32L4672.5,3646.67L4633.45,3671.86L4598.8,3693.91L4567.31,3712.18L4540.22,3727.92L4516.92,3741.15L4497.39,3751.23L4481.64,3759.42L4468.41,3765.72L4458.33,3770.13L4450.15,3772.65L4443.85,3773.91L4440.07,3774.54L4436.92,3773.91L4434.4,3772.65L4432.51,3770.76L4427.47,3766.98L4424.32,3765.09L4419.91,3763.83L4413.61,3762.57L4394.09,3762.57L4380.23,3763.83L4362.59,3765.72L4341.8,3768.24L4317.24,3772.65L4288.26,3777.69L4255.51,3783.35L4217.71,3790.28L4176.14,3798.47L4130.16,3806.66L4081.02,3815.48L4028.74,3824.3L3974.57,3832.49L3924.81,3839.42L3875.05,3845.08L3827.18,3850.75L3780.56,3855.16L3735.84,3859.57L3694.9,3862.72L3655.84,3865.87L3620.57,3868.39L3588.44,3870.91L3559.47,3872.8L3533.64,3874.06L3510.34,3875.32L3489.55,3876.58L3471.28,3877.84L3454.9,3878.47L3441.05,3879.1L3428.45,3879.73L3417.11,3879.73L3406.4,3880.36L3377.43,3880.36L3367.35,3879.73L3356.64,3879.73L3344.67,3879.1L3332.07,3878.47L3317.59,3877.84L3301.21,3876.58L3282.31,3875.32L3260.9,3873.43L3236.96,3871.54L3209.87,3869.02L3180.27,3866.5L3146.88,3863.35L3109.72,3859.57L3069.41,3855.16L3026.57,3850.12L2979.96,3844.45L2930.83,3838.16L2879.81,3831.23L2826.89,3823.67L2773.98,3814.85L2718.55,3804.77L2664.38,3794.69L2612.73,3784.61L2564.23,3774.54L2519.5,3765.09L2478.56,3755.64L2441.4,3748.08L2408.64,3740.52L2379.67,3734.85L2354.47,3729.18L2332.42,3724.77L2314.16,3721.62L2299.04,3719.1L2286.44,3717.21L2276.36,3715.96L2267.54,3715.33L2261.24,3714.7L2241.72,3714.7L2231.64,3713.44L2224.71,3711.55L2216.52,3709.03L2207.07,3705.25L2194.47,3700.84L2179.99,3694.54L2162.35,3686.98L2141.56,3676.9L2117,3665.56L2089.28,3651.71L2057.16,3635.33L2021.88,3617.06L1982.2,3595.64L1939.36,3572.34L1892.75,3545.88L1843.62,3516.91L1792.6,3486.04L1740.32,3453.29L1696.85,3424.94L1653.39,3395.34L1610.56,3365.73L1568.35,3335.5L1528.04,3305.26L1488.36,3275.03L1449.93,3244.79L1412.77,3215.18L1376.23,3185.58L1341.59,3155.97L1307.58,3127L1274.82,3098.65L1243.33,3069.68L1212.46,3041.33L1182.23,3013.62L1153.25,2985.9L1124.27,2958.19L1096.56,2930.47L1069.47,2903.38L1043.02,2876.3L1016.56,2849.21L991.365,2822.76L966.799,2796.3L942.233,2770.48L918.927,2745.28L896.25,2720.08L874.204,2695.52L852.787,2672.21L832.63,2649.53L813.104,2628.12L794.836,2607.33L777.829,2587.8L762.082,2569.54L747.594,2553.16L734.366,2537.41L722.398,2523.55L711.69,2511.59L702.871,2500.88L695.312,2491.43L688.383,2483.87L683.344,2477.57L679.565,2473.16L676.415,2469.38L674.526,2466.86L673.266,2465.6L672.006,2464.97L672.006,2464.34" style="fill:none;fill-rule:nonzero;stroke:rgb(0,0,255);stroke-width:28.35px;stroke-dasharray:94.49,94.49;"/>
    </g>
    <g transform="matrix(0.0989204,-0.0146546,-0.0146546,-0.0989204,32.685,556.956)">
        <clipPath id="_clip1">
            <path d="M492.874,5557.33L-176.84,1036.66L8676.53,-274.921L9346.25,4245.74L492.874,5557.33ZM6550.78,1794.49L6550.71,1643.58L6925.12,1643.51L6622.99,1718.84L6925.29,1795.04L6550.78,1794.49Z"/>
        </clipPath>
        <g clip-path="url(#_clip1)">
            <path d="M6560.54,1718.54L7334.23,1718.54" style="fill:none;fill-rule:nonzero;stroke:rgb(0,255,0);stroke-width:28.35px;"/>
        </g>
    </g>
    <g transform="matrix(0.1,0,0,0.1,0,113.796)">
        <path d="M6914.32,1641.06L6626.45,1760.74L6936.36,1790.98" style="fill:none;fill-rule:nonzero;stroke:rgb(0,255,0);stroke-width:28.35px;"/>
    </g>
    <g transform="matrix(0.0983131,-0.0182904,-0.0182904,-0.0983131,66.0048,573.835)">
        <clipPath id="_clip2">
            <path d="M400.656,5762.28L-435.216,1269.37L8363.8,-367.624L9199.68,4125.28L400.656,5762.28ZM6034.5,3070.18L6034.55,2918.97L6408.65,2918.57L6106.8,2993.94L6408.6,3069.78L6034.5,3070.18Z"/>
        </clipPath>
        <g clip-path="url(#_clip2)">
            <path d="M6044.04,2994.09L7283.82,2994.09" style="fill:none;fill-rule:nonzero;stroke:rgb(0,0,255);stroke-width:28.35px;"/>
        </g>
    </g>
    <g transform="matrix(0.1,0,0,0.1,0,-132.495)">
        <path d="M6399.06,2873.15L6116.23,3002.91L6426.77,3021.8" style="fill:none;fill-rule:nonzero;stroke:rgb(0,0,255);stroke-width:28.35px;"/>
    </g>
    <g transform="matrix(56.691,0,0,56.691,741.509,293.65)">
        <path d="M0.386,-0.736C0.454,-0.736 0.512,-0.723 0.561,-0.697C0.632,-0.659 0.676,-0.594 0.692,-0.5L0.596,-0.5C0.584,-0.552 0.56,-0.591 0.523,-0.615C0.486,-0.638 0.44,-0.65 0.384,-0.65C0.317,-0.65 0.261,-0.625 0.216,-0.576C0.171,-0.526 0.148,-0.452 0.148,-0.353C0.148,-0.268 0.167,-0.198 0.204,-0.145C0.242,-0.091 0.303,-0.064 0.387,-0.064C0.452,-0.064 0.506,-0.083 0.548,-0.121C0.591,-0.158 0.612,-0.219 0.613,-0.303L0.389,-0.303L0.389,-0.384L0.704,-0.384L0.704,-0L0.641,-0L0.618,-0.092C0.585,-0.056 0.556,-0.031 0.53,-0.017C0.488,0.007 0.433,0.019 0.368,0.019C0.283,0.019 0.21,-0.008 0.148,-0.063C0.082,-0.132 0.048,-0.227 0.048,-0.348C0.048,-0.468 0.081,-0.563 0.146,-0.634C0.208,-0.702 0.288,-0.736 0.386,-0.736Z" style="fill:rgb(0,255,0);fill-rule:nonzero;"/>
    </g>
    <g transform="matrix(56.691,0,0,56.691,782.771,293.65)">
        <path d="M0.067,-0.523L0.15,-0.523L0.15,-0.433C0.157,-0.45 0.174,-0.472 0.201,-0.497C0.227,-0.522 0.258,-0.535 0.293,-0.535C0.295,-0.535 0.297,-0.535 0.301,-0.534C0.305,-0.534 0.312,-0.533 0.321,-0.532L0.321,-0.439C0.316,-0.44 0.311,-0.441 0.307,-0.441C0.302,-0.442 0.298,-0.442 0.292,-0.442C0.248,-0.442 0.214,-0.428 0.19,-0.399C0.167,-0.371 0.155,-0.338 0.155,-0.301L0.155,-0L0.067,-0L0.067,-0.523Z" style="fill:rgb(0,255,0);fill-rule:nonzero;"/>
    </g>
    <g transform="matrix(56.691,0,0,56.691,798.815,293.65)">
        <path d="M0.282,-0.535C0.319,-0.535 0.355,-0.526 0.39,-0.509C0.425,-0.491 0.451,-0.469 0.47,-0.441C0.487,-0.415 0.499,-0.384 0.505,-0.349C0.51,-0.325 0.513,-0.286 0.513,-0.233L0.129,-0.233C0.131,-0.18 0.144,-0.138 0.167,-0.106C0.19,-0.074 0.227,-0.058 0.276,-0.058C0.322,-0.058 0.358,-0.073 0.386,-0.103C0.401,-0.121 0.412,-0.141 0.419,-0.164L0.505,-0.164C0.503,-0.145 0.496,-0.123 0.483,-0.1C0.47,-0.076 0.455,-0.057 0.439,-0.042C0.413,-0.016 0.38,0.002 0.34,0.011C0.319,0.016 0.295,0.019 0.269,0.019C0.203,0.019 0.148,-0.005 0.103,-0.052C0.058,-0.1 0.035,-0.166 0.035,-0.251C0.035,-0.335 0.058,-0.404 0.104,-0.456C0.149,-0.508 0.209,-0.535 0.282,-0.535ZM0.422,-0.303C0.419,-0.341 0.41,-0.372 0.397,-0.395C0.373,-0.437 0.333,-0.458 0.277,-0.458C0.236,-0.458 0.203,-0.443 0.175,-0.414C0.148,-0.385 0.133,-0.348 0.132,-0.303L0.422,-0.303Z" style="fill:rgb(0,255,0);fill-rule:nonzero;"/>
    </g>
    <g transform="matrix(56.691,0,0,56.691,827.509,293.65)">
        <path d="M0.282,-0.535C0.319,-0.535 0.355,-0.526 0.39,-0.509C0.425,-0.491 0.451,-0.469 0.47,-0.441C0.487,-0.415 0.499,-0.384 0.505,-0.349C0.51,-0.325 0.513,-0.286 0.513,-0.233L0.129,-0.233C0.131,-0.18 0.144,-0.138 0.167,-0.106C0.19,-0.074 0.227,-0.058 0.276,-0.058C0.322,-0.058 0.358,-0.073 0.386,-0.103C0.401,-0.121 0.412,-0.141 0.419,-0.164L0.505,-0.164C0.503,-0.145 0.496,-0.123 0.483,-0.1C0.47,-0.076 0.455,-0.057 0.439,-0.042C0.413,-0.016 0.38,0.002 0.34,0.011C0.319,0.016 0.295,0.019 0.269,0.019C0.203,0.019 0.148,-0.005 0.103,-0.052C0.058,-0.1 0.035,-0.166 0.035,-0.251C0.035,-0.335 0.058,-0.404 0.104,-0.456C0.149,-0.508 0.209,-0.535 0.282,-0.535ZM0.422,-0.303C0.419,-0.341 0.41,-0.372 0.397,-0.395C0.373,-0.437 0.333,-0.458 0.277,-0.458C0.236,-0.458 0.203,-0.443 0.175,-0.414C0.148,-0.385 0.133,-0.348 0.132,-0.303L0.422,-0.303Z" style="fill:rgb(0,255,0);fill-rule:nonzero;"/>
    </g>
    <g transform="matrix(56.691,0,0,56.691,856.203,293.65)">
        <path d="M0.064,-0.523L0.148,-0.523L0.148,-0.449C0.173,-0.479 0.199,-0.501 0.227,-0.515C0.254,-0.528 0.285,-0.535 0.319,-0.535C0.393,-0.535 0.443,-0.509 0.469,-0.457C0.484,-0.429 0.491,-0.388 0.491,-0.335L0.491,-0L0.401,-0L0.401,-0.33C0.401,-0.361 0.397,-0.387 0.387,-0.407C0.372,-0.439 0.343,-0.456 0.302,-0.456C0.281,-0.456 0.264,-0.453 0.251,-0.449C0.227,-0.442 0.206,-0.428 0.188,-0.406C0.173,-0.389 0.163,-0.371 0.159,-0.353C0.155,-0.334 0.152,-0.308 0.152,-0.274L0.152,-0L0.064,-0L0.064,-0.523Z" style="fill:rgb(0,255,0);fill-rule:nonzero;"/>
    </g>
    <g transform="matrix(56.691,0,0,56.691,733.005,166.095)">
        <path d="M0.346,-0.414C0.387,-0.414 0.419,-0.42 0.441,-0.431C0.477,-0.449 0.495,-0.481 0.495,-0.528C0.495,-0.575 0.476,-0.606 0.438,-0.623C0.417,-0.632 0.385,-0.636 0.342,-0.636L0.169,-0.636L0.169,-0.414L0.346,-0.414ZM0.378,-0.083C0.438,-0.083 0.48,-0.1 0.506,-0.135C0.522,-0.157 0.53,-0.183 0.53,-0.214C0.53,-0.266 0.507,-0.301 0.46,-0.32C0.435,-0.33 0.403,-0.335 0.362,-0.335L0.169,-0.335L0.169,-0.083L0.378,-0.083ZM0.074,-0.717L0.382,-0.717C0.466,-0.717 0.526,-0.692 0.561,-0.642C0.582,-0.612 0.592,-0.578 0.592,-0.54C0.592,-0.494 0.579,-0.457 0.554,-0.428C0.54,-0.413 0.521,-0.399 0.496,-0.386C0.533,-0.372 0.56,-0.356 0.579,-0.339C0.611,-0.308 0.627,-0.264 0.627,-0.209C0.627,-0.163 0.612,-0.121 0.583,-0.084C0.54,-0.028 0.471,-0 0.377,-0L0.074,-0L0.074,-0.717Z" style="fill:rgb(0,0,255);fill-rule:nonzero;"/>
    </g>
    <g transform="matrix(56.691,0,0,56.691,767.983,166.095)">
        <rect x="0.067" y="-0.717" width="0.088" height="0.717" style="fill:rgb(0,0,255);fill-rule:nonzero;"/>
    </g>
    <g transform="matrix(56.691,0,0,56.691,777.743,166.095)">
        <path d="M0.152,-0.523L0.152,-0.176C0.152,-0.149 0.157,-0.127 0.165,-0.11C0.181,-0.079 0.21,-0.063 0.252,-0.063C0.314,-0.063 0.355,-0.091 0.377,-0.146C0.389,-0.175 0.396,-0.215 0.396,-0.266L0.396,-0.523L0.483,-0.523L0.483,-0L0.4,-0L0.401,-0.077C0.39,-0.057 0.376,-0.041 0.359,-0.027C0.325,0 0.285,0.014 0.237,0.014C0.162,0.014 0.111,-0.011 0.084,-0.061C0.07,-0.087 0.063,-0.123 0.063,-0.167L0.063,-0.523L0.152,-0.523Z" style="fill:rgb(0,0,255);fill-rule:nonzero;"/>
    </g>
    <g transform="matrix(56.691,0,0,56.691,806.438,166.095)">
        <path d="M0.282,-0.535C0.319,-0.535 0.355,-0.526 0.39,-0.509C0.425,-0.491 0.451,-0.469 0.47,-0.441C0.487,-0.415 0.499,-0.384 0.505,-0.349C0.51,-0.325 0.513,-0.286 0.513,-0.233L0.129,-0.233C0.131,-0.18 0.144,-0.138 0.167,-0.106C0.19,-0.074 0.227,-0.058 0.276,-0.058C0.322,-0.058 0.358,-0.073 0.386,-0.103C0.401,-0.121 0.412,-0.141 0.419,-0.164L0.505,-0.164C0.503,-0.145 0.496,-0.123 0.483,-0.1C0.47,-0.076 0.455,-0.057 0.439,-0.042C0.413,-0.016 0.38,0.002 0.34,0.011C0.319,0.016 0.295,0.019 0.269,0.019C0.203,0.019 0.148,-0.005 0.103,-0.052C0.058,-0.1 0.035,-0.166 0.035,-0.251C0.035,-0.335 0.058,-0.404 0.104,-0.456C0.149,-0.508 0.209,-0.535 0.282,-0.535ZM0.422,-0.303C0.419,-0.341 0.41,-0.372 0.397,-0.395C0.373,-0.437 0.333,-0.458 0.277,-0.458C0.236,-0.458 0.203,-0.443 0.175,-0.414C0.148,-0.385 0.133,-0.348 0.132,-0.303L0.422,-0.303Z" style="fill:rgb(0,0,255);fill-rule:nonzero;"/>
    </g>
</svg>
